<svg width="30" height="30" viewBox="0 0 30 30" fill="none" xmlns="http://www.w3.org/2000/svg">
<path fill-rule="evenodd" clip-rule="evenodd" d="M15 2C7.824 2 2 7.824 2 15C2 22.176 7.824 28 15 28C22.176 28 28 22.176 28 15C28 7.824 22.176 2 15 2ZM15 5.9C17.158 5.9 18.9 7.642 18.9 9.8C18.9 11.958 17.158 13.7 15 13.7C12.842 13.7 11.1 11.958 11.1 9.8C11.1 7.642 12.842 5.9 15 5.9ZM7.2 20.174C8.877 22.696 11.75 24.36 15 24.36C18.25 24.36 21.123 22.696 22.8 20.174C22.761 17.587 17.587 16.17 15 16.17C12.4 16.17 7.239 17.587 7.2 20.174Z" fill="#1B1B1B"/>
</svg>
