<svg width="30" height="30" viewBox="0 0 30 30" fill="none" xmlns="http://www.w3.org/2000/svg">
<path fill-rule="evenodd" clip-rule="evenodd" d="M17.4762 11.9048H14.8968V8.19048H11.0278V5.71429H14.8968V2H17.4762V5.71429H21.3452V8.19048H17.4762V11.9048ZM7.17163 25.5238C7.17163 24.1619 8.31944 23.0476 9.73809 23.0476C11.1567 23.0476 12.3175 24.1619 12.3175 25.5238C12.3175 26.8857 11.1567 28 9.73809 28C8.31944 28 7.17163 26.8857 7.17163 25.5238ZM22.6349 23.0476C21.2163 23.0476 20.0684 24.1619 20.0684 25.5238C20.0684 26.8857 21.2163 28 22.6349 28C24.0536 28 25.2143 26.8857 25.2143 25.5238C25.2143 24.1619 24.0536 23.0476 22.6349 23.0476ZM20.6081 17.0139H11L10 19H25L24 22H9.7381C7.77778 22 6.53968 19.7914 7.48115 18.1324L9 15L4.5 6H2V3H6.5L12 14.381H20.7649L25.7431 5.71429L28 6.90286L22.8651 15.7387C22.4266 16.5063 21.5754 17.0139 20.6081 17.0139Z" fill="#1B1B1B"/>
</svg>
