<svg width="30" height="30" viewBox="0 0 30 30" fill="none" xmlns="http://www.w3.org/2000/svg">
<path d="M8.42444 13.5211C10.1844 16.98 13.02 19.8033 16.4789 21.5756L19.1678 18.8867C19.4978 18.5567 19.9867 18.4467 20.4144 18.5933C21.7833 19.0456 23.2622 19.29 24.7778 19.29C25.45 19.29 26 19.84 26 20.5122V24.7778C26 25.45 25.45 26 24.7778 26C13.3011 26 4 16.6989 4 5.22222C4 4.55 4.55 4 5.22222 4H9.5C10.1722 4 10.7222 4.55 10.7222 5.22222C10.7222 6.75 10.9667 8.21667 11.4189 9.58556C11.5533 10.0133 11.4556 10.49 11.1133 10.8322L8.42444 13.5211Z" fill="#1B1B1B"/>
</svg>
