<svg width="30" height="30" viewBox="0 0 30 30" fill="none" xmlns="http://www.w3.org/2000/svg">
<path fill-rule="evenodd" clip-rule="evenodd" d="M25.4 8.05263H22.566C22.709 7.66105 22.8 7.23158 22.8 6.78947C22.8 4.69263 21.058 3 18.9 3C17.535 3 16.352 3.68211 15.65 4.70526L15 5.55158L14.35 4.69263C13.648 3.68211 12.465 3 11.1 3C8.942 3 7.2 4.69263 7.2 6.78947C7.2 7.23158 7.291 7.66105 7.434 8.05263H4.6C3.157 8.05263 2.013 9.17684 2.013 10.5789L2 24.4737C2 25.8758 3.157 27 4.6 27H25.4C26.843 27 28 25.8758 28 24.4737V10.5789C28 9.17684 26.843 8.05263 25.4 8.05263ZM18.9 5.52632C19.615 5.52632 20.2 6.09474 20.2 6.78948C20.2 7.48422 19.615 8.05264 18.9 8.05264C18.185 8.05264 17.6 7.48422 17.6 6.78948C17.6 6.09474 18.185 5.52632 18.9 5.52632ZM12.4 6.78948C12.4 6.09474 11.815 5.52632 11.1 5.52632C10.385 5.52632 9.8 6.09474 9.8 6.78948C9.8 7.48422 10.385 8.05264 11.1 8.05264C11.815 8.05264 12.4 7.48422 12.4 6.78948ZM4.6 24.4737V21.9474H25.4V24.4737H4.6ZM4.6 10.5789V18.1579H25.4V10.5789H18.796L21.5 14.1537L19.394 15.6316L15 9.82104L10.606 15.6316L8.5 14.1537L11.204 10.5789H4.6Z" fill="#1B1B1B"/>
</svg>
