<svg width="30" height="30" viewBox="0 0 30 30" fill="none" xmlns="http://www.w3.org/2000/svg">
<path d="M25.4375 1.875H4.8125C4.06658 1.875 3.35121 2.17132 2.82376 2.69876C2.29632 3.22621 2 3.94158 2 4.6875L2 25.3125C2 26.0584 2.29632 26.7738 2.82376 27.3012C3.35121 27.8287 4.06658 28.125 4.8125 28.125H12.8545V19.2006H9.16309V15H12.8545V11.7984C12.8545 8.15684 15.0225 6.14531 18.343 6.14531C19.9332 6.14531 21.5961 6.42891 21.5961 6.42891V10.0031H19.7639C17.9586 10.0031 17.3955 11.1234 17.3955 12.2725V15H21.4256L20.7811 19.2006H17.3955V28.125H25.4375C26.1834 28.125 26.8988 27.8287 27.4262 27.3012C27.9537 26.7738 28.25 26.0584 28.25 25.3125V4.6875C28.25 3.94158 27.9537 3.22621 27.4262 2.69876C26.8988 2.17132 26.1834 1.875 25.4375 1.875Z" fill="black"/>
</svg>
