<svg width="30" height="30" viewBox="0 0 30 30" fill="none" xmlns="http://www.w3.org/2000/svg">
<path fill-rule="evenodd" clip-rule="evenodd" d="M15 6.50572C16.308 4.97112 18.312 4 20.4 4C24.096 4 27 6.90136 27 10.594C27 15.1222 22.9267 18.8125 16.7552 24.4037L16.74 24.4174L15 26L13.26 24.4294L13.2126 24.3864C7.05916 18.7996 3 15.1143 3 10.594C3 6.90136 5.904 4 9.6 4C11.688 4 13.692 4.97112 15 6.50572ZM15 22.7629L15.12 22.643C20.832 17.4757 24.6 14.0588 24.6 10.594C24.6 8.19618 22.8 6.39781 20.4 6.39781C18.552 6.39781 16.752 7.58473 16.128 9.22724H13.884C13.248 7.58473 11.448 6.39781 9.59999 6.39781C7.19999 6.39781 5.39999 8.19618 5.39999 10.594C5.39999 14.0588 9.16799 17.4757 14.88 22.643L15 22.7629Z" fill="#1B1B1B"/>
</svg>
