<svg width="30" height="30" viewBox="0 0 30 30" fill="none" xmlns="http://www.w3.org/2000/svg">
<path d="M15.1308 8.26172C11.4043 8.26172 8.39843 11.2676 8.39843 14.9941C8.39843 18.7207 11.4043 21.7266 15.1308 21.7266C18.8574 21.7266 21.8633 18.7207 21.8633 14.9941C21.8633 11.2676 18.8574 8.26172 15.1308 8.26172ZM15.1308 19.3711C12.7226 19.3711 10.7539 17.4082 10.7539 14.9941C10.7539 12.5801 12.7168 10.6172 15.1308 10.6172C17.5449 10.6172 19.5078 12.5801 19.5078 14.9941C19.5078 17.4082 17.539 19.3711 15.1308 19.3711V19.3711ZM23.709 7.98633C23.709 8.85937 23.0058 9.55664 22.1387 9.55664C21.2656 9.55664 20.5683 8.85351 20.5683 7.98633C20.5683 7.11914 21.2715 6.41601 22.1387 6.41601C23.0058 6.41601 23.709 7.11914 23.709 7.98633ZM28.1679 9.58008C28.0683 7.47656 27.5879 5.61328 26.0469 4.07812C24.5117 2.54297 22.6484 2.0625 20.5449 1.95703C18.3769 1.83398 11.8789 1.83398 9.71093 1.95703C7.61328 2.05664 5.75 2.53711 4.20898 4.07227C2.66797 5.60742 2.19336 7.4707 2.08789 9.57422C1.96484 11.7422 1.96484 18.2402 2.08789 20.4082C2.1875 22.5117 2.66797 24.375 4.20898 25.9102C5.75 27.4453 7.60742 27.9258 9.71093 28.0312C11.8789 28.1543 18.3769 28.1543 20.5449 28.0312C22.6484 27.9316 24.5117 27.4512 26.0469 25.9102C27.582 24.375 28.0625 22.5117 28.1679 20.4082C28.291 18.2402 28.291 11.748 28.1679 9.58008V9.58008ZM25.3672 22.7344C24.9101 23.8828 24.0254 24.7676 22.8711 25.2305C21.1426 25.916 17.041 25.7578 15.1308 25.7578C13.2207 25.7578 9.11327 25.9102 7.39062 25.2305C6.24218 24.7734 5.35742 23.8887 4.89453 22.7344C4.20898 21.0059 4.36719 16.9043 4.36719 14.9941C4.36719 13.084 4.21484 8.97656 4.89453 7.25391C5.35156 6.10547 6.23632 5.2207 7.39062 4.75781C9.11913 4.07227 13.2207 4.23047 15.1308 4.23047C17.041 4.23047 21.1484 4.07812 22.8711 4.75781C24.0195 5.21484 24.9043 6.09961 25.3672 7.25391C26.0527 8.98242 25.8945 13.084 25.8945 14.9941C25.8945 16.9043 26.0527 21.0117 25.3672 22.7344Z" fill="black"/>
</svg>
