<svg width="30" height="30" viewBox="0 0 30 30" fill="none" xmlns="http://www.w3.org/2000/svg">
<path d="M17.9434 11.9649V16.1309C17.9434 16.2363 17.8613 16.3184 17.7559 16.3184H17.0879C17.0235 16.3184 16.9649 16.2832 16.9356 16.2422L15.0254 13.6641V16.1367C15.0254 16.2422 14.9434 16.3242 14.8379 16.3242H14.1699C14.0645 16.3242 13.9824 16.2422 13.9824 16.1367V11.9707C13.9824 11.8652 14.0645 11.7832 14.1699 11.7832H14.832C14.8906 11.7832 14.9551 11.8125 14.9844 11.8652L16.8945 14.4434V11.9707C16.8945 11.8652 16.9766 11.7832 17.082 11.7832H17.75C17.8555 11.7774 17.9434 11.8652 17.9434 11.9649V11.9649ZM13.1387 11.7774H12.4707C12.3652 11.7774 12.2832 11.8594 12.2832 11.9649V16.1309C12.2832 16.2363 12.3652 16.3184 12.4707 16.3184H13.1387C13.2442 16.3184 13.3262 16.2363 13.3262 16.1309V11.9649C13.3262 11.8652 13.2442 11.7774 13.1387 11.7774V11.7774ZM11.5274 15.2695H9.70509V11.9649C9.70509 11.8594 9.62306 11.7774 9.51759 11.7774H8.84962C8.74415 11.7774 8.66212 11.8594 8.66212 11.9649V16.1309C8.66212 16.1836 8.6797 16.2246 8.71486 16.2598C8.75001 16.2891 8.79103 16.3125 8.84376 16.3125H11.5215C11.627 16.3125 11.709 16.2305 11.709 16.125V15.457C11.709 15.3574 11.627 15.2695 11.5274 15.2695V15.2695ZM21.459 11.7774H18.7813C18.6817 11.7774 18.5938 11.8594 18.5938 11.9649V16.1309C18.5938 16.2305 18.6758 16.3184 18.7813 16.3184H21.459C21.5645 16.3184 21.6465 16.2363 21.6465 16.1309V15.4629C21.6465 15.3574 21.5645 15.2754 21.459 15.2754H19.6367V14.5723H21.459C21.5645 14.5723 21.6465 14.4902 21.6465 14.3848V13.711C21.6465 13.6055 21.5645 13.5235 21.459 13.5235H19.6367V12.8203H21.459C21.5645 12.8203 21.6465 12.7383 21.6465 12.6328V11.9649C21.6406 11.8652 21.5586 11.7774 21.459 11.7774V11.7774ZM28.25 6.66212V23.3789C28.2442 26.0039 26.0938 28.1309 23.4629 28.125H6.74611C4.12111 28.1192 1.99415 25.9629 2.00001 23.3379V6.62111C2.00587 3.99611 4.16212 1.86915 6.78712 1.87501H23.5039C26.1289 1.88087 28.2559 4.03126 28.25 6.66212ZM24.6406 13.8457C24.6406 9.56837 20.3516 6.0879 15.084 6.0879C9.81642 6.0879 5.52736 9.56837 5.52736 13.8457C5.52736 17.6777 8.92579 20.8887 13.5195 21.4981C14.6387 21.7383 14.5098 22.1485 14.2578 23.6543C14.2168 23.8945 14.0645 24.5977 15.084 24.1699C16.1035 23.7422 20.586 20.9297 22.5957 18.6211C23.9785 17.0977 24.6406 15.5567 24.6406 13.8457Z" fill="black"/>
</svg>
