<svg width="30" height="30" viewBox="0 0 30 30" fill="none" xmlns="http://www.w3.org/2000/svg">
<path fill-rule="evenodd" clip-rule="evenodd" d="M15 2C7.824 2 2 7.824 2 15C2 22.176 7.824 28 15 28C22.176 28 28 22.176 28 15C28 7.824 22.176 2 15 2ZM15 25.4C9.254 25.4 4.6 20.746 4.6 15C4.6 12.595 5.419 10.385 6.797 8.63L21.37 23.203C19.615 24.581 17.405 25.4 15 25.4ZM8.63 6.797L23.203 21.37C24.581 19.615 25.4 17.405 25.4 15C25.4 9.254 20.746 4.6 15 4.6C12.595 4.6 10.385 5.419 8.63 6.797Z" fill="#1B1B1B"/>
</svg>
