<svg width="30" height="30" viewBox="0 0 30 30" fill="none" xmlns="http://www.w3.org/2000/svg">
<path fill-rule="evenodd" clip-rule="evenodd" d="M18.7296 17.8365H19.7233L26 24.1258L24.1258 26L17.8365 19.7233V18.7296L17.4969 18.3774C16.0629 19.6101 14.2013 20.3522 12.1761 20.3522C7.66038 20.3522 4 16.6918 4 12.1761C4 7.66038 7.66038 4 12.1761 4C16.6918 4 20.3522 7.66038 20.3522 12.1761C20.3522 14.2013 19.6101 16.0629 18.3774 17.4969L18.7296 17.8365ZM6.51572 12.1761C6.51572 15.3082 9.04402 17.8365 12.1761 17.8365C15.3082 17.8365 17.8365 15.3082 17.8365 12.1761C17.8365 9.04403 15.3082 6.51572 12.1761 6.51572C9.04402 6.51572 6.51572 9.04403 6.51572 12.1761Z" fill="#1B1B1B"/>
</svg>
