<svg width="30" height="30" viewBox="0 0 30 30" fill="none" xmlns="http://www.w3.org/2000/svg">
<path d="M22.3333 19.9639C21.4044 19.9639 20.5733 20.3253 19.9378 20.8916L11.2233 15.8916C11.2844 15.6145 11.3333 15.3373 11.3333 15.0482C11.3333 14.759 11.2844 14.4819 11.2233 14.2048L19.84 9.25301C20.5 9.85542 21.3678 10.2289 22.3333 10.2289C24.3622 10.2289 26 8.61446 26 6.61446C26 4.61446 24.3622 3 22.3333 3C20.3044 3 18.6667 4.61446 18.6667 6.61446C18.6667 6.90361 18.7156 7.18072 18.7767 7.45783L10.16 12.4096C9.5 11.8072 8.63222 11.4337 7.66667 11.4337C5.63778 11.4337 4 13.0482 4 15.0482C4 17.0482 5.63778 18.6627 7.66667 18.6627C8.63222 18.6627 9.5 18.2892 10.16 17.6867L18.8622 22.6988C18.8011 22.9518 18.7644 23.2169 18.7644 23.4819C18.7644 25.4217 20.3656 27 22.3333 27C24.3011 27 25.9022 25.4217 25.9022 23.4819C25.9022 21.5422 24.3011 19.9639 22.3333 19.9639Z" fill="#1B1B1B"/>
</svg>
