<svg width="30" height="30" viewBox="0 0 30 30" fill="none" xmlns="http://www.w3.org/2000/svg">
<path fill-rule="evenodd" clip-rule="evenodd" d="M2 2V5H4L9 14L7.52295 17.639C6.5743 19.381 8.02473 22 10 22H25L26 19H10.5L12 16H21.1814C22.156 16 23.0137 15.467 23.4556 14.661L27.8344 6.524C28.3152 5.666 27.9876 5 27 5H8L6 2H2ZM9.7971 22.8C8.36763 22.8 7.21106 23.97 7.21106 25.4C7.21106 26.83 8.36763 28 9.7971 28C11.2266 28 12.3961 26.83 12.3961 25.4C12.3961 23.97 11.2266 22.8 9.7971 22.8ZM20.2062 25.4C20.2062 23.97 21.3628 22.8 22.7923 22.8C24.2217 22.8 25.3913 23.97 25.3913 25.4C25.3913 26.83 24.2217 28 22.7923 28C21.3628 28 20.2062 26.83 20.2062 25.4Z" fill="#1B1B1B"/>
</svg>
