<svg width="30" height="30" viewBox="0 0 30 30" fill="none" xmlns="http://www.w3.org/2000/svg">
<path d="M28.6263 15.8847L19.6259 24.6333C18.8223 25.4144 17.4293 24.8676 17.4293 23.748V19H10.1433C9.43073 19 8.85748 18.4428 8.85748 17.7502V12.2498C8.85748 11.5572 9.43073 11 10.1433 11H17.4293V6.2509C17.4293 5.1365 18.8169 4.58451 19.6259 5.36563L28.6263 14.1142C29.1246 14.6037 29.1246 15.3952 28.6263 15.8847ZM12.2862 24.3729V22.2899C12.2862 21.9462 11.9969 21.665 11.6433 21.665H7.14311C6.19485 21.665 5.42874 20.9203 5.42874 19.9986V10.0003C5.42874 9.07856 6.19485 8.33389 7.14311 8.33389H11.6433C11.9969 8.33389 12.2862 8.05268 12.2862 7.70899V5.626C12.2862 5.28231 11.9969 5.00111 11.6433 5.00111H7.14311C4.30369 5.00111 2 7.24032 2 10.0003V19.9986C2 22.7586 4.30369 24.9978 7.14311 24.9978H11.6433C11.9969 24.9978 12.2862 24.7166 12.2862 24.3729Z" fill="black"/>
</svg>
