<svg width="30" height="30" viewBox="0 0 30 30" fill="none" xmlns="http://www.w3.org/2000/svg">
<path d="M23.2222 24.5897H18.9369C18.6002 24.5897 18.3248 24.3142 18.3248 23.9775V21.9369C18.3248 21.6002 18.6002 21.3248 18.9369 21.3248H23.2222C24.1252 21.3248 24.8547 20.5952 24.8547 19.6923V9.89743C24.8547 8.99446 24.1252 8.26495 23.2222 8.26495H18.9369C18.6002 8.26495 18.3248 7.98947 18.3248 7.65277V5.61218C18.3248 5.27548 18.6002 5 18.9369 5H23.2222C25.926 5 28.1196 7.19364 28.1196 9.89743V19.6923C28.1196 22.3961 25.926 24.5897 23.2222 24.5897Z" fill="black"/>
<path d="M12.1576 5.36672L20.6475 14.1148C21.1175 14.6043 21.1175 15.3957 20.6475 15.8852L12.1576 24.6333C11.3996 25.4144 10.0856 24.8676 10.0856 23.7481V18.7492H3.21285C2.54073 18.7492 2 18.192 2 17.4994V12.5006C2 11.808 2.54073 11.2508 3.21285 11.2508H10.0856V6.25194C10.0856 5.13239 11.3996 4.58564 12.1576 5.36672Z" fill="black"/>
</svg>
