<svg width="24" height="24" viewBox="0 0 24 24" fill="none" xmlns="http://www.w3.org/2000/svg">
<path d="M18.5778 19.6718H15.1496C14.8802 19.6718 14.6598 19.4514 14.6598 19.182V17.5496C14.6598 17.2802 14.8802 17.0598 15.1496 17.0598H18.5778C19.3001 17.0598 19.8837 16.4762 19.8837 15.7538V7.91794C19.8837 7.19557 19.3001 6.61196 18.5778 6.61196H15.1496C14.8802 6.61196 14.6598 6.39158 14.6598 6.12222V4.48974C14.6598 4.22038 14.8802 4 15.1496 4H18.5778C20.7408 4 22.4957 5.75491 22.4957 7.91794V15.7538C22.4957 17.9169 20.7408 19.6718 18.5778 19.6718Z" fill="black"/>
<path d="M9.72607 4.29337L16.518 11.2918C16.894 11.6834 16.894 12.3166 16.518 12.7082L9.72607 19.7066C9.11965 20.3315 8.06851 19.8941 8.06851 18.9984V14.9993H2.57028C2.03258 14.9993 1.6 14.5536 1.6 13.9996V10.0004C1.6 9.4464 2.03258 9.00066 2.57028 9.00066H8.06851V5.00155C8.06851 4.10591 9.11965 3.66851 9.72607 4.29337Z" fill="black"/>
</svg>
