<svg width="24" height="24" viewBox="0 0 24 24" fill="none" xmlns="http://www.w3.org/2000/svg">
<path d="M22.9011 12.7078L15.7007 19.7066C15.0578 20.3315 13.9435 19.8941 13.9435 18.9984V15.2H8.11461C7.54458 15.2 7.08599 14.7542 7.08599 14.2002V9.79983C7.08599 9.24576 7.54458 8.8 8.11461 8.8H13.9435V5.00072C13.9435 4.1092 15.0535 3.66761 15.7007 4.2925L22.9011 11.2913C23.2996 11.6829 23.2996 12.3162 22.9011 12.7078ZM9.82898 19.4983V17.8319C9.82898 17.557 9.59754 17.332 9.31467 17.332H5.71449C4.95588 17.332 4.34299 16.7363 4.34299 15.9989V8.00022C4.34299 7.26284 4.95588 6.66711 5.71449 6.66711H9.31467C9.59754 6.66711 9.82898 6.44215 9.82898 6.16719V4.5008C9.82898 4.22585 9.59754 4.00089 9.31467 4.00089H5.71449C3.44295 4.00089 1.6 5.79226 1.6 8.00022V15.9989C1.6 18.2069 3.44295 19.9982 5.71449 19.9982H9.31467C9.59754 19.9982 9.82898 19.7733 9.82898 19.4983Z" fill="black"/>
</svg>
