<svg width="30" height="30" viewBox="0 0 30 30" fill="none" xmlns="http://www.w3.org/2000/svg">
<path d="M28.6279 7.27049C28.3007 5.88475 27.3369 4.79338 26.1131 4.42301C23.8949 3.75 15 3.75 15 3.75C15 3.75 6.10522 3.75 3.88694 4.42301C2.66314 4.79344 1.69928 5.88475 1.37215 7.27049C0.777771 9.78223 0.777771 15.0227 0.777771 15.0227C0.777771 15.0227 0.777771 20.2632 1.37215 22.775C1.69928 24.1607 2.66314 25.2066 3.88694 25.577C6.10522 26.25 15 26.25 15 26.25C15 26.25 23.8948 26.25 26.1131 25.577C27.3369 25.2066 28.3007 24.1607 28.6279 22.775C29.2223 20.2632 29.2223 15.0227 29.2223 15.0227C29.2223 15.0227 29.2223 9.78223 28.6279 7.27049V7.27049ZM12.0909 19.7807V10.2647L19.5252 15.0229L12.0909 19.7807V19.7807Z" fill="black"/>
</svg>
