<svg width="30" height="30" viewBox="0 0 30 30" fill="none" xmlns="http://www.w3.org/2000/svg">
<path fill-rule="evenodd" clip-rule="evenodd" d="M20.582 18.3522H19.4077L18.9914 17.9508C20.4483 16.2561 21.3253 14.056 21.3253 11.6627C21.3253 6.3259 16.9994 2 11.6627 2C6.3259 2 2 6.3259 2 11.6627C2 16.9994 6.3259 21.3253 11.6627 21.3253C14.056 21.3253 16.2561 20.4483 17.9508 18.9914L18.3522 19.4077V20.582L25.785 28L28 25.785L20.582 18.3522ZM11.6627 18.3522C7.96112 18.3522 4.97313 15.3642 4.97313 11.6627C4.97313 7.96112 7.96112 4.97313 11.6627 4.97313C15.3642 4.97313 18.3522 7.96112 18.3522 11.6627C18.3522 15.3642 15.3642 18.3522 11.6627 18.3522ZM11 8H12V11H15V12H12V15H11L11 12H8V11H11L11 8Z" fill="#1B1B1B"/>
</svg>
