<svg width="205" height="40" viewBox="0 0 205 40" fill="none" xmlns="http://www.w3.org/2000/svg">
<path d="M18.9648 27.125C18.9648 28.0755 18.7826 28.9674 18.418 29.8008C18.0664 30.6341 17.5781 31.3633 16.9531 31.9883C16.3281 32.6133 15.5924 33.1081 14.7461 33.4727C13.9128 33.8242 13.0208 34 12.0703 34H3.20312V5.99219H12.0703C13.0208 5.99219 13.9128 6.17448 14.7461 6.53906C15.5924 6.89062 16.3281 7.37891 16.9531 8.00391C17.5781 8.62891 18.0664 9.36458 18.418 10.2109C18.7826 11.0443 18.9648 11.9362 18.9648 12.8867V27.125ZM16.4453 12.8867C16.4453 12.2617 16.3281 11.6823 16.0938 11.1484C15.8594 10.6016 15.5339 10.1263 15.1172 9.72266C14.7135 9.30599 14.2383 8.98047 13.6914 8.74609C13.1576 8.51172 12.5781 8.39453 11.9531 8.39453H5.72266V31.5977H11.9531C12.5781 31.5977 13.1576 31.4805 13.6914 31.2461C14.2383 31.0117 14.7135 30.6927 15.1172 30.2891C15.5339 29.8854 15.8594 29.4167 16.0938 28.8828C16.3281 28.3359 16.4453 27.75 16.4453 27.125V12.8867Z" fill="black"/>
<path d="M40.3125 27.5156C40.3125 28.4661 40.1302 29.3581 39.7656 30.1914C39.4141 31.0247 38.9258 31.7539 38.3008 32.3789C37.6758 33.0039 36.9466 33.4987 36.1133 33.8633C35.2799 34.2148 34.388 34.3906 33.4375 34.3906H31.4453C30.4948 34.3906 29.5964 34.2148 28.75 33.8633C27.9167 33.4987 27.1875 33.0039 26.5625 32.3789C25.9375 31.7539 25.4427 31.0247 25.0781 30.1914C24.7266 29.3581 24.5508 28.4661 24.5508 27.5156V5.99219H27.0703V27.5156C27.0703 28.1406 27.1875 28.7266 27.4219 29.2734C27.6562 29.8073 27.9753 30.2826 28.3789 30.6992C28.7956 31.1029 29.2708 31.4219 29.8047 31.6562C30.3516 31.8906 30.9375 32.0078 31.5625 32.0078H33.3203C33.9453 32.0078 34.5247 31.8906 35.0586 31.6562C35.6055 31.4219 36.0807 31.1029 36.4844 30.6992C36.888 30.2826 37.207 29.8073 37.4414 29.2734C37.6758 28.7266 37.793 28.1406 37.793 27.5156V5.99219H40.3125V27.5156Z" fill="black"/>
<path d="M63.5742 34V14.8008L63.3984 15.9922L56.8945 34H55.5664L49.0039 15.9922L48.8477 14.8008V34H46.3281V5.99219H47.6367L56.1328 28.9609L56.2109 29.9961L56.2891 28.9609L64.7656 5.99219H66.0938V34H63.5742Z" fill="black"/>
<path d="M89.7461 34V14.8008L89.5703 15.9922L83.0664 34H81.7383L75.1758 15.9922L75.0195 14.8008V34H72.5V5.99219H73.8086L82.3047 28.9609L82.3828 29.9961L82.4609 28.9609L90.9375 5.99219H92.2656V34H89.7461Z" fill="black"/>
<path d="M106.035 20.6016V34H103.516V20.6406L96.2695 5.99219H98.9844L104.746 17.6328L110.508 5.99219H113.223L106.035 20.6016Z" fill="black"/>
<path d="M126.035 34V5.99219H128.555V31.5977H139.277V34H126.035Z" fill="black"/>
<path d="M158.633 27.5156C158.633 28.4661 158.451 29.3581 158.086 30.1914C157.734 31.0247 157.246 31.7539 156.621 32.3789C155.996 33.0039 155.267 33.4987 154.434 33.8633C153.6 34.2148 152.708 34.3906 151.758 34.3906H149.766C148.815 34.3906 147.917 34.2148 147.07 33.8633C146.237 33.4987 145.508 33.0039 144.883 32.3789C144.258 31.7539 143.763 31.0247 143.398 30.1914C143.047 29.3581 142.871 28.4661 142.871 27.5156V12.4766C142.871 11.526 143.047 10.6341 143.398 9.80078C143.763 8.96745 144.258 8.23828 144.883 7.61328C145.508 6.98828 146.237 6.5 147.07 6.14844C147.917 5.78385 148.815 5.60156 149.766 5.60156H151.758C152.708 5.60156 153.6 5.78385 154.434 6.14844C155.267 6.5 155.996 6.98828 156.621 7.61328C157.246 8.23828 157.734 8.96745 158.086 9.80078C158.451 10.6341 158.633 11.526 158.633 12.4766V27.5156ZM156.113 12.4766C156.113 11.8516 155.996 11.2721 155.762 10.7383C155.527 10.1914 155.208 9.71615 154.805 9.3125C154.401 8.90885 153.926 8.58984 153.379 8.35547C152.845 8.12109 152.266 8.00391 151.641 8.00391H149.883C149.258 8.00391 148.672 8.12109 148.125 8.35547C147.591 8.58984 147.116 8.90885 146.699 9.3125C146.296 9.71615 145.977 10.1914 145.742 10.7383C145.508 11.2721 145.391 11.8516 145.391 12.4766V27.5156C145.391 28.1406 145.508 28.7266 145.742 29.2734C145.977 29.8073 146.296 30.2826 146.699 30.6992C147.116 31.1029 147.591 31.4219 148.125 31.6562C148.672 31.8906 149.258 32.0078 149.883 32.0078H151.641C152.266 32.0078 152.845 31.8906 153.379 31.6562C153.926 31.4219 154.401 31.1029 154.805 30.6992C155.208 30.2826 155.527 29.8073 155.762 29.2734C155.996 28.7266 156.113 28.1406 156.113 27.5156V12.4766Z" fill="black"/>
<path d="M180 34H179.199L177.734 31.7539C177.122 32.5612 176.38 33.2057 175.508 33.6875C174.635 34.1562 173.665 34.3906 172.598 34.3906H171.133C170.182 34.3906 169.284 34.2148 168.438 33.8633C167.604 33.4987 166.875 33.0039 166.25 32.3789C165.625 31.7539 165.13 31.0247 164.766 30.1914C164.414 29.3581 164.238 28.4661 164.238 27.5156V12.4766C164.238 11.526 164.414 10.6341 164.766 9.80078C165.13 8.96745 165.625 8.23828 166.25 7.61328C166.875 6.98828 167.604 6.5 168.438 6.14844C169.284 5.78385 170.182 5.60156 171.133 5.60156H173.125C174.076 5.60156 174.967 5.78385 175.801 6.14844C176.634 6.5 177.363 6.98828 177.988 7.61328C178.613 8.23828 179.102 8.96745 179.453 9.80078C179.818 10.6341 180 11.526 180 12.4766V13.6094L177.48 14V12.4766C177.48 11.8516 177.363 11.2721 177.129 10.7383C176.895 10.1914 176.576 9.71615 176.172 9.3125C175.768 8.90885 175.293 8.58984 174.746 8.35547C174.212 8.12109 173.633 8.00391 173.008 8.00391H171.25C170.625 8.00391 170.039 8.12109 169.492 8.35547C168.958 8.58984 168.483 8.90885 168.066 9.3125C167.663 9.71615 167.344 10.1914 167.109 10.7383C166.875 11.2721 166.758 11.8516 166.758 12.4766V27.5156C166.758 28.1406 166.875 28.7266 167.109 29.2734C167.344 29.8073 167.663 30.2826 168.066 30.6992C168.483 31.1029 168.958 31.4219 169.492 31.6562C170.039 31.8906 170.625 32.0078 171.25 32.0078H173.008C173.633 32.0078 174.212 31.8906 174.746 31.6562C175.293 31.4219 175.768 31.1029 176.172 30.6992C176.576 30.2826 176.895 29.8073 177.129 29.2734C177.363 28.7266 177.48 28.1406 177.48 27.5156V21.6758H173.008V19.2734H180V34Z" fill="black"/>
<path d="M201.367 27.5156C201.367 28.4661 201.185 29.3581 200.82 30.1914C200.469 31.0247 199.98 31.7539 199.355 32.3789C198.73 33.0039 198.001 33.4987 197.168 33.8633C196.335 34.2148 195.443 34.3906 194.492 34.3906H192.5C191.549 34.3906 190.651 34.2148 189.805 33.8633C188.971 33.4987 188.242 33.0039 187.617 32.3789C186.992 31.7539 186.497 31.0247 186.133 30.1914C185.781 29.3581 185.605 28.4661 185.605 27.5156V12.4766C185.605 11.526 185.781 10.6341 186.133 9.80078C186.497 8.96745 186.992 8.23828 187.617 7.61328C188.242 6.98828 188.971 6.5 189.805 6.14844C190.651 5.78385 191.549 5.60156 192.5 5.60156H194.492C195.443 5.60156 196.335 5.78385 197.168 6.14844C198.001 6.5 198.73 6.98828 199.355 7.61328C199.98 8.23828 200.469 8.96745 200.82 9.80078C201.185 10.6341 201.367 11.526 201.367 12.4766V27.5156ZM198.848 12.4766C198.848 11.8516 198.73 11.2721 198.496 10.7383C198.262 10.1914 197.943 9.71615 197.539 9.3125C197.135 8.90885 196.66 8.58984 196.113 8.35547C195.579 8.12109 195 8.00391 194.375 8.00391H192.617C191.992 8.00391 191.406 8.12109 190.859 8.35547C190.326 8.58984 189.85 8.90885 189.434 9.3125C189.03 9.71615 188.711 10.1914 188.477 10.7383C188.242 11.2721 188.125 11.8516 188.125 12.4766V27.5156C188.125 28.1406 188.242 28.7266 188.477 29.2734C188.711 29.8073 189.03 30.2826 189.434 30.6992C189.85 31.1029 190.326 31.4219 190.859 31.6562C191.406 31.8906 191.992 32.0078 192.617 32.0078H194.375C195 32.0078 195.579 31.8906 196.113 31.6562C196.66 31.4219 197.135 31.1029 197.539 30.6992C197.943 30.2826 198.262 29.8073 198.496 29.2734C198.73 28.7266 198.848 28.1406 198.848 27.5156V12.4766Z" fill="black"/>
</svg>
